<?xml version="1.0" encoding="UTF-8"?>
<svg xmlns="http://www.w3.org/2000/svg" xmlns:xlink="http://www.w3.org/1999/xlink" width="130" zoomAndPan="magnify" viewBox="0 0 97.5 37.5" height="50" preserveAspectRatio="xMidYMid meet" version="1.0">
  <defs>
    <g></g>
    <clipPath id="d1ea9b2387">
      <path d="M 58.125 6 L 70 6 L 70 13 L 58.125 13 Z M 58.125 6 " clip-rule="nonzero"></path>
    </clipPath>
    <clipPath id="2ca2eee083">
      <path d="M 84 7 L 96.613281 7 L 96.613281 14 L 84 14 Z M 84 7 " clip-rule="nonzero"></path>
    </clipPath>
    <clipPath id="3ccc5bd534">
      <path d="M 59 1 L 95 1 L 95 14.0625 L 59 14.0625 Z M 59 1 " clip-rule="nonzero"></path>
    </clipPath>
  </defs>
  <g fill="#ff66c4" fill-opacity="1">
    <g transform="translate(2.137854, 25.615119)">
      <g>
        <path d="M 5.421875 -7.890625 C 5.421875 -9.03125 4.8125 -9.625 3.6875 -9.625 L 2.34375 -9.625 C 1.21875 -9.625 0.609375 -9.03125 0.609375 -7.890625 L 0.609375 -1.734375 C 0.609375 -0.609375 1.21875 0 2.34375 0 L 3.6875 0 C 4.8125 0 5.421875 -0.609375 5.421875 -1.734375 L 5.421875 -3.03125 C 5.421875 -3.15625 5.359375 -3.21875 5.234375 -3.21875 L 4.03125 -3.21875 C 3.890625 -3.21875 3.84375 -3.15625 3.84375 -3.03125 L 3.84375 -2.0625 C 3.84375 -1.75 3.671875 -1.59375 3.359375 -1.59375 L 2.734375 -1.59375 C 2.421875 -1.59375 2.25 -1.75 2.25 -2.0625 L 2.25 -7.5625 C 2.25 -7.875 2.40625 -8.03125 2.734375 -8.03125 L 3.359375 -8.03125 C 3.671875 -8.03125 3.84375 -7.875 3.84375 -7.5625 L 3.84375 -6.59375 C 3.84375 -6.46875 3.890625 -6.40625 4.03125 -6.40625 L 5.234375 -6.40625 C 5.359375 -6.40625 5.421875 -6.46875 5.421875 -6.59375 Z M 5.421875 -7.890625 "></path>
      </g>
    </g>
  </g>
  <g fill="#ff66c4" fill-opacity="1">
    <g transform="translate(8.167297, 25.615119)">
      <g>
        <path d="M 3.78125 -5.609375 L 2.234375 -5.609375 L 2.234375 -9.4375 C 2.234375 -9.546875 2.171875 -9.625 2.046875 -9.625 L 0.8125 -9.625 C 0.65625 -9.625 0.609375 -9.546875 0.609375 -9.4375 L 0.609375 -0.1875 C 0.609375 -0.078125 0.65625 0 0.8125 0 L 2.046875 0 C 2.171875 0 2.234375 -0.078125 2.234375 -0.1875 L 2.234375 -4.015625 L 3.78125 -4.015625 L 3.78125 -0.1875 C 3.78125 -0.078125 3.84375 0 3.96875 0 L 5.203125 0 C 5.359375 0 5.421875 -0.078125 5.421875 -0.1875 L 5.421875 -9.4375 C 5.421875 -9.546875 5.359375 -9.625 5.203125 -9.625 L 3.96875 -9.625 C 3.84375 -9.625 3.78125 -9.546875 3.78125 -9.4375 Z M 3.78125 -5.609375 "></path>
      </g>
    </g>
  </g>
  <g fill="#ff66c4" fill-opacity="1">
    <g transform="translate(14.18471, 25.615119)">
      <g>
        <path d="M 0.796875 -9.625 C 0.65625 -9.625 0.609375 -9.546875 0.609375 -9.4375 L 0.609375 -0.1875 C 0.609375 -0.078125 0.65625 0 0.796875 0 L 2.046875 0 C 2.171875 0 2.234375 -0.078125 2.234375 -0.1875 L 2.234375 -9.4375 C 2.234375 -9.546875 2.171875 -9.625 2.046875 -9.625 Z M 0.796875 -9.625 "></path>
      </g>
    </g>
  </g>
  <g fill="#ff66c4" fill-opacity="1">
    <g transform="translate(17.024928, 25.615119)">
      <g>
        <path d="M 5.421875 -7.890625 C 5.421875 -9.03125 4.8125 -9.625 3.6875 -9.625 L 2.34375 -9.625 C 1.21875 -9.625 0.609375 -9.03125 0.609375 -7.890625 L 0.609375 -1.734375 C 0.609375 -0.609375 1.21875 0 2.34375 0 L 3.6875 0 C 4.8125 0 5.421875 -0.609375 5.421875 -1.734375 L 5.421875 -3.03125 C 5.421875 -3.15625 5.359375 -3.21875 5.234375 -3.21875 L 4.03125 -3.21875 C 3.890625 -3.21875 3.84375 -3.15625 3.84375 -3.03125 L 3.84375 -2.0625 C 3.84375 -1.75 3.671875 -1.59375 3.359375 -1.59375 L 2.734375 -1.59375 C 2.421875 -1.59375 2.25 -1.75 2.25 -2.0625 L 2.25 -7.5625 C 2.25 -7.875 2.40625 -8.03125 2.734375 -8.03125 L 3.359375 -8.03125 C 3.671875 -8.03125 3.84375 -7.875 3.84375 -7.5625 L 3.84375 -6.59375 C 3.84375 -6.46875 3.890625 -6.40625 4.03125 -6.40625 L 5.234375 -6.40625 C 5.359375 -6.40625 5.421875 -6.46875 5.421875 -6.59375 Z M 5.421875 -7.890625 "></path>
      </g>
    </g>
  </g>
  <g fill="#ff66c4" fill-opacity="1">
    <g transform="translate(23.05437, 25.615119)">
      <g></g>
    </g>
  </g>
  <g fill="#ff66c4" fill-opacity="1">
    <g transform="translate(26.063072, 25.615119)">
      <g>
        <path d="M 4.296875 -9.625 C 4.15625 -9.625 4.109375 -9.546875 4.109375 -9.4375 L 4.109375 -4.359375 L 4.03125 -4.359375 L 2.203125 -9.46875 C 2.171875 -9.578125 2.09375 -9.625 1.984375 -9.625 L 0.796875 -9.625 C 0.671875 -9.625 0.609375 -9.546875 0.609375 -9.4375 L 0.609375 -0.1875 C 0.609375 -0.078125 0.671875 0 0.796875 0 L 2.046875 0 C 2.171875 0 2.234375 -0.078125 2.234375 -0.1875 L 2.234375 -5.296875 L 2.296875 -5.296875 L 4.140625 -0.15625 C 4.171875 -0.046875 4.25 0 4.359375 0 L 5.546875 0 C 5.671875 0 5.734375 -0.078125 5.734375 -0.1875 L 5.734375 -9.4375 C 5.734375 -9.546875 5.671875 -9.625 5.546875 -9.625 Z M 4.296875 -9.625 "></path>
      </g>
    </g>
  </g>
  <g fill="#ff66c4" fill-opacity="1">
    <g transform="translate(32.405426, 25.615119)">
      <g>
        <path d="M 5.40625 -9.4375 C 5.40625 -9.546875 5.359375 -9.625 5.203125 -9.625 L 0.78125 -9.625 C 0.671875 -9.625 0.609375 -9.546875 0.609375 -9.4375 L 0.609375 -0.1875 C 0.609375 -0.078125 0.671875 0 0.78125 0 L 5.203125 0 C 5.359375 0 5.40625 -0.078125 5.40625 -0.1875 L 5.40625 -1.390625 C 5.40625 -1.53125 5.359375 -1.59375 5.203125 -1.59375 L 2.203125 -1.59375 L 2.203125 -4.015625 L 4.5 -4.015625 C 4.625 -4.015625 4.6875 -4.09375 4.6875 -4.21875 L 4.6875 -5.421875 C 4.6875 -5.546875 4.625 -5.625 4.5 -5.625 L 2.203125 -5.625 L 2.203125 -8.03125 L 5.203125 -8.03125 C 5.359375 -8.03125 5.40625 -8.109375 5.40625 -8.234375 Z M 5.40625 -9.4375 "></path>
      </g>
    </g>
  </g>
  <g fill="#ff66c4" fill-opacity="1">
    <g transform="translate(38.410801, 25.615119)">
      <g>
        <path d="M 2.328125 -9.625 C 1.21875 -9.625 0.609375 -9.03125 0.609375 -7.890625 L 0.609375 -5.046875 C 0.609375 -4.828125 0.703125 -4.6875 0.921875 -4.609375 L 3.78125 -3.671875 L 3.78125 -2.0625 C 3.78125 -1.75 3.609375 -1.59375 3.296875 -1.59375 L 2.71875 -1.59375 C 2.421875 -1.59375 2.234375 -1.75 2.234375 -2.0625 L 2.234375 -3 C 2.234375 -3.125 2.171875 -3.1875 2.046875 -3.1875 L 0.796875 -3.1875 C 0.671875 -3.1875 0.609375 -3.125 0.609375 -3 L 0.609375 -1.734375 C 0.609375 -0.609375 1.21875 0 2.328125 0 L 3.6875 0 C 4.8125 0 5.421875 -0.609375 5.421875 -1.734375 L 5.421875 -4.515625 C 5.421875 -4.734375 5.3125 -4.875 5.09375 -4.953125 L 2.234375 -5.890625 L 2.234375 -7.5625 C 2.234375 -7.875 2.421875 -8.03125 2.71875 -8.03125 L 3.296875 -8.03125 C 3.625 -8.03125 3.78125 -7.875 3.78125 -7.5625 L 3.78125 -6.625 C 3.78125 -6.5 3.84375 -6.421875 3.96875 -6.421875 L 5.21875 -6.421875 C 5.359375 -6.421875 5.421875 -6.5 5.421875 -6.625 L 5.421875 -7.890625 C 5.421875 -9.03125 4.8125 -9.625 3.6875 -9.625 Z M 2.328125 -9.625 "></path>
      </g>
    </g>
  </g>
  <g fill="#ff66c4" fill-opacity="1">
    <g transform="translate(44.428214, 25.615119)">
      <g>
        <path d="M 0.546875 -9.625 C 0.4375 -9.625 0.359375 -9.546875 0.359375 -9.4375 L 0.359375 -8.234375 C 0.359375 -8.109375 0.4375 -8.03125 0.546875 -8.03125 L 1.953125 -8.03125 L 1.953125 -0.1875 C 1.953125 -0.0625 2.015625 0 2.140625 0 L 3.390625 0 C 3.53125 0 3.578125 -0.0625 3.578125 -0.1875 L 3.578125 -8.03125 L 4.984375 -8.03125 C 5.109375 -8.03125 5.171875 -8.109375 5.171875 -8.234375 L 5.171875 -9.4375 C 5.171875 -9.546875 5.109375 -9.625 4.984375 -9.625 Z M 0.546875 -9.625 "></path>
      </g>
    </g>
  </g>
  <g fill="#ff66c4" fill-opacity="1">
    <g transform="translate(49.964233, 25.615119)">
      <g></g>
    </g>
  </g>
  <g fill="#ff66c4" fill-opacity="1">
    <g transform="translate(52.972934, 25.615119)">
      <g>
        <path d="M 0.796875 -9.625 C 0.65625 -9.625 0.609375 -9.546875 0.609375 -9.4375 L 0.609375 -0.1875 C 0.609375 -0.078125 0.65625 0 0.796875 0 L 2.046875 0 C 2.171875 0 2.234375 -0.078125 2.234375 -0.1875 L 2.234375 -9.4375 C 2.234375 -9.546875 2.171875 -9.625 2.046875 -9.625 Z M 0.796875 -9.625 "></path>
      </g>
    </g>
  </g>
  <g fill="#ff66c4" fill-opacity="1">
    <g transform="translate(55.813152, 25.615119)">
      <g>
        <path d="M 4.296875 -9.625 C 4.15625 -9.625 4.109375 -9.546875 4.109375 -9.4375 L 4.109375 -4.359375 L 4.03125 -4.359375 L 2.203125 -9.46875 C 2.171875 -9.578125 2.09375 -9.625 1.984375 -9.625 L 0.796875 -9.625 C 0.671875 -9.625 0.609375 -9.546875 0.609375 -9.4375 L 0.609375 -0.1875 C 0.609375 -0.078125 0.671875 0 0.796875 0 L 2.046875 0 C 2.171875 0 2.234375 -0.078125 2.234375 -0.1875 L 2.234375 -5.296875 L 2.296875 -5.296875 L 4.140625 -0.15625 C 4.171875 -0.046875 4.25 0 4.359375 0 L 5.546875 0 C 5.671875 0 5.734375 -0.078125 5.734375 -0.1875 L 5.734375 -9.4375 C 5.734375 -9.546875 5.671875 -9.625 5.546875 -9.625 Z M 4.296875 -9.625 "></path>
      </g>
    </g>
  </g>
  <g fill="#ff66c4" fill-opacity="1">
    <g transform="translate(62.155506, 25.615119)">
      <g>
        <path d="M 0.546875 -9.625 C 0.4375 -9.625 0.359375 -9.546875 0.359375 -9.4375 L 0.359375 -8.234375 C 0.359375 -8.109375 0.4375 -8.03125 0.546875 -8.03125 L 1.953125 -8.03125 L 1.953125 -0.1875 C 1.953125 -0.0625 2.015625 0 2.140625 0 L 3.390625 0 C 3.53125 0 3.578125 -0.0625 3.578125 -0.1875 L 3.578125 -8.03125 L 4.984375 -8.03125 C 5.109375 -8.03125 5.171875 -8.109375 5.171875 -8.234375 L 5.171875 -9.4375 C 5.171875 -9.546875 5.109375 -9.625 4.984375 -9.625 Z M 0.546875 -9.625 "></path>
      </g>
    </g>
  </g>
  <g fill="#ff66c4" fill-opacity="1">
    <g transform="translate(67.691524, 25.615119)">
      <g>
        <path d="M 5.40625 -9.4375 C 5.40625 -9.546875 5.359375 -9.625 5.203125 -9.625 L 0.78125 -9.625 C 0.671875 -9.625 0.609375 -9.546875 0.609375 -9.4375 L 0.609375 -0.1875 C 0.609375 -0.078125 0.671875 0 0.78125 0 L 5.203125 0 C 5.359375 0 5.40625 -0.078125 5.40625 -0.1875 L 5.40625 -1.390625 C 5.40625 -1.53125 5.359375 -1.59375 5.203125 -1.59375 L 2.203125 -1.59375 L 2.203125 -4.015625 L 4.5 -4.015625 C 4.625 -4.015625 4.6875 -4.09375 4.6875 -4.21875 L 4.6875 -5.421875 C 4.6875 -5.546875 4.625 -5.625 4.5 -5.625 L 2.203125 -5.625 L 2.203125 -8.03125 L 5.203125 -8.03125 C 5.359375 -8.03125 5.40625 -8.109375 5.40625 -8.234375 Z M 5.40625 -9.4375 "></path>
      </g>
    </g>
  </g>
  <g fill="#ff66c4" fill-opacity="1">
    <g transform="translate(73.696899, 25.615119)">
      <g>
        <path d="M 5.546875 -7.890625 C 5.546875 -9.03125 4.9375 -9.625 3.8125 -9.625 L 0.796875 -9.625 C 0.671875 -9.625 0.609375 -9.546875 0.609375 -9.4375 L 0.609375 -0.1875 C 0.609375 -0.078125 0.671875 0 0.796875 0 L 2.046875 0 C 2.171875 0 2.234375 -0.078125 2.234375 -0.1875 L 2.234375 -3.21875 L 3.0625 -3.21875 L 3.875 -0.171875 C 3.890625 -0.0625 3.953125 0 4.078125 0 L 5.328125 0 C 5.46875 0 5.53125 -0.078125 5.5 -0.21875 L 4.671875 -3.375 C 5.25 -3.625 5.546875 -4.15625 5.546875 -4.953125 Z M 2.234375 -4.8125 L 2.234375 -8.03125 L 3.421875 -8.03125 C 3.734375 -8.03125 3.90625 -7.875 3.90625 -7.5625 L 3.90625 -5.296875 C 3.90625 -4.984375 3.734375 -4.8125 3.421875 -4.8125 Z M 2.234375 -4.8125 "></path>
      </g>
    </g>
  </g>
  <g fill="#ff66c4" fill-opacity="1">
    <g transform="translate(79.84669, 25.615119)">
      <g>
        <path d="M 0.796875 -9.625 C 0.65625 -9.625 0.609375 -9.546875 0.609375 -9.4375 L 0.609375 -0.1875 C 0.609375 -0.078125 0.65625 0 0.796875 0 L 2.046875 0 C 2.171875 0 2.234375 -0.078125 2.234375 -0.1875 L 2.234375 -9.4375 C 2.234375 -9.546875 2.171875 -9.625 2.046875 -9.625 Z M 0.796875 -9.625 "></path>
      </g>
    </g>
  </g>
  <g fill="#ff66c4" fill-opacity="1">
    <g transform="translate(82.686907, 25.615119)">
      <g>
        <path d="M 0.609375 -1.734375 C 0.609375 -0.609375 1.203125 0 2.328125 0 L 3.6875 0 C 4.8125 0 5.421875 -0.609375 5.421875 -1.734375 L 5.421875 -7.890625 C 5.421875 -9.03125 4.8125 -9.625 3.6875 -9.625 L 2.328125 -9.625 C 1.203125 -9.625 0.609375 -9.03125 0.609375 -7.890625 Z M 2.6875 -1.546875 C 2.375 -1.546875 2.203125 -1.703125 2.203125 -2.03125 L 2.203125 -7.59375 C 2.203125 -7.90625 2.375 -8.078125 2.6875 -8.078125 L 3.375 -8.078125 C 3.6875 -8.078125 3.859375 -7.90625 3.859375 -7.59375 L 3.859375 -2.03125 C 3.859375 -1.703125 3.6875 -1.546875 3.375 -1.546875 Z M 2.6875 -1.546875 "></path>
      </g>
    </g>
  </g>
  <g fill="#ff66c4" fill-opacity="1">
    <g transform="translate(88.704321, 25.615119)">
      <g>
        <path d="M 5.546875 -7.890625 C 5.546875 -9.03125 4.9375 -9.625 3.8125 -9.625 L 0.796875 -9.625 C 0.671875 -9.625 0.609375 -9.546875 0.609375 -9.4375 L 0.609375 -0.1875 C 0.609375 -0.078125 0.671875 0 0.796875 0 L 2.046875 0 C 2.171875 0 2.234375 -0.078125 2.234375 -0.1875 L 2.234375 -3.21875 L 3.0625 -3.21875 L 3.875 -0.171875 C 3.890625 -0.0625 3.953125 0 4.078125 0 L 5.328125 0 C 5.46875 0 5.53125 -0.078125 5.5 -0.21875 L 4.671875 -3.375 C 5.25 -3.625 5.546875 -4.15625 5.546875 -4.953125 Z M 2.234375 -4.8125 L 2.234375 -8.03125 L 3.421875 -8.03125 C 3.734375 -8.03125 3.90625 -7.875 3.90625 -7.5625 L 3.90625 -5.296875 C 3.90625 -4.984375 3.734375 -4.8125 3.421875 -4.8125 Z M 2.234375 -4.8125 "></path>
      </g>
    </g>
  </g>
  <g clip-path="url(#d1ea9b2387)">
    <path fill="#ff66c4" d="M 59.351562 12.261719 L 65.511719 6.996094 L 69.960938 10.714844 L 65.277344 6.113281 L 58.125 12.261719 Z M 59.351562 12.261719 " fill-opacity="1" fill-rule="evenodd"></path>
  </g>
  <path fill="#ff66c4" d="M 89.945312 12.445312 L 91.339844 12.445312 L 91.339844 13.855469 L 89.945312 13.855469 Z M 89.945312 12.445312 " fill-opacity="1" fill-rule="evenodd"></path>
  <path fill="#ff66c4" d="M 88.347656 12.445312 L 89.742188 12.445312 L 89.742188 13.855469 L 88.347656 13.855469 Z M 88.347656 12.445312 " fill-opacity="1" fill-rule="evenodd"></path>
  <path fill="#ff66c4" d="M 88.347656 10.832031 L 89.742188 10.832031 L 89.742188 12.238281 L 88.347656 12.238281 Z M 88.347656 10.832031 " fill-opacity="1" fill-rule="evenodd"></path>
  <path fill="#ff66c4" d="M 89.945312 10.832031 L 91.339844 10.832031 L 91.339844 12.238281 L 89.945312 12.238281 Z M 89.945312 10.832031 " fill-opacity="1" fill-rule="evenodd"></path>
  <g clip-path="url(#2ca2eee083)">
    <path fill="#ff66c4" d="M 89.445312 7.21875 L 84.691406 11.8125 L 89.179688 8.164062 L 95.34375 13.324219 L 96.609375 13.324219 Z M 89.445312 7.21875 " fill-opacity="1" fill-rule="evenodd"></path>
  </g>
  <path fill="#ff66c4" d="M 80.621094 0.644531 L 82.871094 1.816406 L 82.871094 1.253906 L 80.582031 0.0078125 L 79.527344 0.917969 L 79.527344 1.601562 Z M 80.621094 0.644531 " fill-opacity="1" fill-rule="evenodd"></path>
  <g clip-path="url(#3ccc5bd534)">
    <path fill="#ff66c4" d="M 80.957031 14.019531 L 89.363281 5.824219 L 94.757812 10.058594 L 89.792969 5.363281 L 86.226562 6.058594 L 83.457031 3.441406 L 82.738281 3.441406 L 82.738281 2.171875 L 80.621094 1.0625 L 80.621094 3.597656 L 79.910156 2.644531 L 74.058594 1.222656 L 71.378906 3.785156 L 74.347656 1.542969 L 80.929688 7.507812 L 79.382812 7.789062 L 78.003906 8.847656 L 75.550781 6.839844 L 64.96875 4.273438 L 59.65625 9.140625 L 65.332031 4.683594 L 73.527344 12.738281 L 72.007812 14.019531 Z M 80.957031 14.019531 " fill-opacity="1" fill-rule="evenodd"></path>
  </g>
  <path fill="#ff66c4" d="M 74.535156 2.742188 L 71.527344 5.171875 L 72.257812 5.46875 C 72.257812 5.46875 74.558594 3.25 74.558594 3.285156 C 74.558594 3.320312 78.488281 6.644531 78.488281 6.644531 Z M 74.535156 2.742188 " fill-opacity="1" fill-rule="evenodd"></path>
  <path fill="#ff66c4" d="M 73.84375 4.351562 L 74.457031 4.351562 L 74.457031 4.96875 L 73.84375 4.96875 Z M 73.84375 4.351562 " fill-opacity="1" fill-rule="evenodd"></path>
  <path fill="#ff66c4" d="M 73.84375 5.058594 L 74.457031 5.058594 L 74.457031 5.675781 L 73.84375 5.675781 Z M 73.84375 5.058594 " fill-opacity="1" fill-rule="evenodd"></path>
  <path fill="#ff66c4" d="M 74.546875 5.058594 L 75.160156 5.058594 L 75.160156 5.675781 L 74.546875 5.675781 Z M 74.546875 5.058594 " fill-opacity="1" fill-rule="evenodd"></path>
  <path fill="#ff66c4" d="M 74.546875 4.351562 L 75.160156 4.351562 L 75.160156 4.96875 L 74.546875 4.96875 Z M 74.546875 4.351562 " fill-opacity="1" fill-rule="evenodd"></path>
  <path fill="#ff66c4" d="M 65.292969 11.738281 L 66.683594 11.738281 L 66.683594 13.148438 L 65.292969 13.148438 Z M 65.292969 11.738281 " fill-opacity="1" fill-rule="evenodd"></path>
  <path fill="#ff66c4" d="M 63.691406 11.738281 L 65.085938 11.738281 L 65.085938 13.148438 L 63.691406 13.148438 Z M 63.691406 11.738281 " fill-opacity="1" fill-rule="evenodd"></path>
  <path fill="#ff66c4" d="M 63.691406 10.125 L 65.085938 10.125 L 65.085938 11.535156 L 63.691406 11.535156 Z M 63.691406 10.125 " fill-opacity="1" fill-rule="evenodd"></path>
  <path fill="#ff66c4" d="M 65.292969 10.125 L 66.683594 10.125 L 66.683594 11.535156 L 65.292969 11.535156 Z M 65.292969 10.125 " fill-opacity="1" fill-rule="evenodd"></path>
</svg>
